<?xml version="1.0" encoding="UTF-8"?>
<svg id="Layer_2" data-name="Layer 2" xmlns="http://www.w3.org/2000/svg" viewBox="0 0 3542.95 931.16">
  <defs>
    <style>
      .cls-1 {
        fill: #fff;
      }

      .cls-2 {
        fill: #ff5c8d;
      }

      .cls-3 {
        fill: #80dbff;
      }
    </style>
  </defs>
  <g id="Layer_1-2" data-name="Layer 1">
    <g>
      <g>
        <path class="cls-3" d="m27.34,771.91l-1.32,2.22c-8.35,14.38-12.8,31-12.8,47.92,0,25.61,9.97,49.69,28.08,67.81,18.1,18.08,42.15,28.05,67.73,28.08h5.09s616.23,0,616.23,0h5.05c25.59-.03,49.65-10,67.75-28.09,18.1-18.11,28.08-42.19,28.08-67.8,0-16.92-4.45-33.54-12.88-48.06l-1.26-2.09-254.69-423.85-4.09-6.81h-272.16l-4.09,6.81L27.34,771.91Z"/>
        <path class="cls-2" d="m549.13,584.79c-2.6,7.75-9.92,13.34-18.55,13.34-10.81,0-19.57-8.76-19.57-19.57s8.76-19.57,19.57-19.57c8.63,0,15.95,5.59,18.55,13.34h58.81c0-2.1-.25-4.24-.8-6.33-1.69-6.41-6.37-11.61-12.39-14.39-2.31-1.07-4.79-1.74-7.32-1.97-2.82-.26-5.16-2.29-5.82-5.04h0c-.68-2.84-1.67-5.61-2.94-8.23-6.78-14.01-21.21-23.06-36.76-23.06-3.3.2-6.27-1.97-7.1-5.16v-.06c-2.23-10.39-11.56-17.93-22.21-17.93-4.14,0-8.2,1.13-11.73,3.26h0c-2.45,1.48-5.58,1.22-7.74-.65h0c-8.65-7.48-18.28-13.59-28.56-18.22v128.76c7.5,2.74,12.85,9.94,12.85,18.39,0,10.81-8.76,19.57-19.57,19.57s-19.57-8.76-19.57-19.57c0-8.81,5.82-16.26,13.83-18.72v-133.21c-11.49-3.67-23.56-5.59-35.81-5.59-32,0-62.83,13.21-84.93,36.3v88.57c0,3.77-1.37,7.22-3.63,9.89-.24.33-.49.64-.78.93v.08h-.08c-.29.28-.6.54-.93.78-2.67,2.26-6.12,3.63-9.89,3.63h-22.19c-2.6,7.75-9.92,13.34-18.55,13.34-10.81,0-19.57-8.76-19.57-19.57s8.76-19.57,19.57-19.57c8.63,0,15.95,5.59,18.55,13.34h19.3c3.17,0,5.74-2.57,5.74-5.74v-83.4c-2.38-.43-4.8-.64-7.23-.64-22.51,0-40.81,18.31-40.81,40.81,0,.77.02,1.54.07,2.3h0c.2,3.05-1.71,5.83-4.62,6.75-29.38,9.21-49.12,36.11-49.12,66.92,0,11.14,2.66,22.11,7.69,31.95h67.51c3.77,0,7.22,1.36,9.89,3.62.33.24.65.5.94.78h.08v.08c.29.29.55.61.79.94,2.26,2.67,3.62,6.12,3.62,9.88v15.92c7.75,2.6,13.34,9.92,13.34,18.55,0,10.81-8.76,19.57-19.57,19.57s-19.57-8.76-19.57-19.57c0-8.63,5.59-15.95,13.34-18.55v-13.03c0-3.17-2.57-5.74-5.74-5.74h-64.39c-3.76,8.62-5.71,17.79-5.79,27.32-.32,37.52,29.59,69.12,67.08,70.68,10.67.44,21.01-1.44,30.66-5.59l6.48-2.78c3.19-1.37,6.41,1.88,5.02,5.06l-25.24,57.46c-.98,3.25-1.22,6.73-.67,10.23,1.14,7.31,5.97,13.7,12.68,16.83,11.2,5.23,23.68.66,29.36-9.1l3.03-5.19.26.12,58.6-92.42c.53-.84,1.24-1.52,2.05-2.03.36-.27.76-.47,1.2-.6.89-.34,1.85-.5,2.84-.42,1.78.13,3.58.21,5.39.21,30.47,0,57.51-20.07,66.73-48.58h-88.84c-3.78,0-7.24-1.37-9.91-3.64-.32-.23-.63-.49-.92-.77h-.08v-.08c-.28-.28-.53-.59-.76-.91-2.27-2.67-3.64-6.13-3.64-9.91v-116.99c-7.75-2.6-13.34-9.92-13.34-18.55,0-10.81,8.76-19.57,19.57-19.57s19.57,8.76,19.57,19.57c0,8.63-5.59,15.95-13.34,18.55v114.1c0,3.17,2.57,5.74,5.74,5.74l95.51.02c.37,0,.73-.01,1.1-.02.19,0,.38,0,.57-.02,7.87-.35,15.29-3.16,21.67-7.57h0c1.53-1.06,3.44-1.43,5.26-1,5.21,1.22,10.6,1.83,16.01,1.83,38.67,0,70.12-31.46,70.12-70.12,0-3.48-.26-6.95-.77-10.36h-59.17Z"/>
        <path d="m620.62,578.51c.36-2.05.55-4.16.55-6.28,0-13.14-7.26-25.25-18.68-31.52l-2.17-1.1c-2.28-1.06-4.66-1.86-7.09-2.41-.74-2.25-1.64-4.46-2.66-6.59-8.34-17.23-25.43-28.8-44.33-30.35-5.18-13.78-18.58-23.33-33.64-23.33-4.93,0-9.79,1.01-14.27,2.95-23.18-18.69-52.14-28.93-82.03-28.93-35.02,0-68.79,14.21-93.28,39.13-3.71-.8-7.51-1.2-11.34-1.2-29.14,0-52.97,23.19-54,52.09-32.32,12.25-53.69,42.96-53.69,77.91,0,13.39,3.22,26.58,9.35,38.39-4.79,10.69-7.22,22.1-7.22,33.96,0,45.96,37.39,83.34,83.34,83.34,6.21,0,12.32-.67,18.27-2.01l-16.64,37.89-.25.65c-1.11,3.5-1.68,7.16-1.68,10.87,0,19.81,16.11,35.92,35.92,35.92,10.69,0,20.79-4.82,27.55-12.88l.33.15,62.73-98.93c.79.02,1.58.03,2.37.03,37.54,0,70.74-25.65,80.45-61.55,8.62-.63,16.89-3.3,24.23-7.82,5.31,1.05,10.75,1.57,16.21,1.57,45.96,0,83.34-37.39,83.34-83.34,0-5.6-.56-11.19-1.66-16.64Zm-81.68,86.75c-5.41,0-10.79-.62-16.01-1.83-1.82-.42-3.73-.06-5.26,1h0c-6.38,4.41-13.8,7.22-21.67,7.57-.19,0-.38.01-.58.02-.36.01-.73.02-1.09.02l-95.51-.02c-3.17,0-5.74-2.57-5.74-5.74v-114.1c7.75-2.6,13.34-9.92,13.34-18.55,0-10.81-8.76-19.57-19.57-19.57s-19.57,8.76-19.57,19.57c0,8.63,5.59,15.95,13.34,18.55v116.99c0,3.78,1.37,7.24,3.64,9.91.23.32.48.63.76.91v.08h.08c.28.28.59.53.92.77,2.67,2.27,6.13,3.64,9.91,3.64h88.84c-9.22,28.51-36.27,48.58-66.73,48.58-1.81,0-3.61-.07-5.39-.21-.98-.07-1.95.08-2.84.42-.43.13-.83.33-1.19.6-.81.51-1.51,1.19-2.05,2.03l-58.6,92.42-.26-.12-3.03,5.19c-5.68,9.75-18.16,14.33-29.36,9.1-6.7-3.13-11.54-9.52-12.68-16.83-.54-3.5-.31-6.98.67-10.23l25.24-57.46c1.4-3.18-1.82-6.43-5.02-5.06l-6.48,2.78c-9.65,4.14-19.99,6.03-30.66,5.59-37.48-1.56-67.4-33.16-67.08-70.68.08-9.53,2.03-18.7,5.79-27.32h64.39c3.17,0,5.74,2.57,5.74,5.74v13.03c-7.75,2.6-13.34,9.92-13.34,18.55,0,10.81,8.76,19.57,19.57,19.57s19.57-8.76,19.57-19.57c0-8.63-5.59-15.95-13.34-18.55v-15.92c0-3.77-1.36-7.22-3.62-9.88-.24-.33-.5-.65-.79-.94v-.08h-.08c-.29-.29-.61-.55-.94-.78-2.67-2.26-6.12-3.62-9.89-3.62h-67.51c-5.04-9.83-7.69-20.81-7.69-31.95,0-30.81,19.74-57.7,49.12-66.92,2.91-.91,4.82-3.7,4.62-6.75h0c-.05-.76-.07-1.53-.07-2.3,0-22.51,18.31-40.81,40.81-40.81,2.44,0,4.86.22,7.23.64v83.4c0,3.17-2.57,5.74-5.74,5.74h-19.3c-2.6-7.75-9.92-13.34-18.55-13.34-10.81,0-19.57,8.76-19.57,19.57s8.76,19.57,19.57,19.57c8.63,0,15.95-5.59,18.55-13.34h22.19c3.77,0,7.22-1.37,9.89-3.63.33-.24.64-.49.93-.78h.08v-.08c.28-.29.54-.6.78-.93,2.26-2.67,3.63-6.12,3.63-9.89v-88.57c22.1-23.09,52.93-36.3,84.93-36.3,12.25,0,24.32,1.92,35.81,5.59v133.21c-8.01,2.45-13.83,9.9-13.83,18.72,0,10.81,8.76,19.57,19.57,19.57s19.57-8.76,19.57-19.57c0-8.45-5.35-15.64-12.85-18.39v-128.76c10.28,4.63,19.91,10.74,28.56,18.22h0c2.17,1.87,5.29,2.14,7.74.65h0c3.53-2.13,7.59-3.26,11.73-3.26,10.65,0,19.98,7.54,22.2,17.93v.06c.84,3.2,3.82,5.36,7.11,5.16,15.55,0,29.98,9.05,36.76,23.06,1.27,2.62,2.26,5.39,2.93,8.23h0c.66,2.76,3,4.78,5.82,5.04,2.54.23,5.01.9,7.32,1.97,6.01,2.78,10.69,7.99,12.39,14.39.55,2.09.81,4.22.8,6.33h-58.81c-2.6-7.75-9.92-13.34-18.55-13.34-10.81,0-19.57,8.76-19.57,19.57s8.76,19.57,19.57,19.57c8.63,0,15.95-5.59,18.55-13.34h59.17c.51,3.41.77,6.88.77,10.36,0,38.66-31.46,70.12-70.12,70.12Z"/>
        <g>
          <path d="m260.96,21.53c-.09.19-.19.37-.28.56.09-.19.19-.37.28-.56Z"/>
          <path class="cls-1" d="m514.27,267.98c-3.22-5.36-4.92-11.49-4.92-17.75V71.62c0-4.23,3.43-7.66,7.66-7.66h31.84c6.77,0,13.15-2.64,17.96-7.44,4.77-4.78,7.41-11.16,7.41-17.94s-2.64-13.15-7.43-17.95c-4.79-4.78-11.17-7.42-17.94-7.42h-253.25c-6.77,0-13.15,2.64-17.96,7.44-4.77,4.78-7.41,11.16-7.41,17.94s2.64,13.15,7.43,17.95c4.79,4.78,11.17,7.42,17.94,7.42h31.84c4.23,0,7.66,3.43,7.66,7.66v178.62c0,6.25-1.7,12.39-4.92,17.75l-44.03,73.26h272.16l-44.03-73.27Z"/>
          <path d="m261.52,20.42c-.2.37-.38.74-.56,1.12.18-.37.37-.75.56-1.12Z"/>
        </g>
        <path d="m548.84,13.22c6.77,0,13.15,2.64,17.94,7.42,4.79,4.8,7.43,11.17,7.43,17.95s-2.64,13.15-7.41,17.94c-4.81,4.8-11.19,7.44-17.96,7.44h-31.84c-4.23,0-7.66,3.43-7.66,7.66v5.56s0,173.05,0,173.05c0,6.25,1.7,12.39,4.92,17.75l48.12,80.08,254.69,423.85,1.26,2.09c8.43,14.52,12.88,31.14,12.88,48.06,0,25.61-9.97,49.69-28.08,67.8-18.1,18.09-42.16,28.06-67.75,28.08h-5.05s-616.23,0-616.23,0h-5.09c-25.58-.03-49.64-10-67.73-28.08-18.11-18.11-28.08-42.2-28.08-67.81,0-16.92,4.45-33.54,12.8-47.92l1.32-2.22,254.7-423.85,48.12-80.07c3.22-5.36,4.92-11.5,4.92-17.75V77.19s0-5.56,0-5.56c0-4.23-3.43-7.66-7.66-7.66h-5.56s-26.28,0-26.28,0c-6.77,0-13.15-2.64-17.94-7.42-4.79-4.8-7.43-11.17-7.43-17.95s2.64-13.15,7.41-17.94c4.81-4.8,11.19-7.44,17.96-7.44h253.25m0-13.22h-253.25c-10.3,0-19.99,4.02-27.29,11.3-7.28,7.29-11.3,16.98-11.3,27.29s4.01,20,11.3,27.29c7.3,7.28,16.99,11.3,27.29,11.3h24.36c1.06,0,1.91.86,1.91,1.91v171.71c0,3.47-.95,6.88-2.73,9.86l-48.42,80.57L16.01,765.1l-1.35,2.26c-9.59,16.53-14.66,35.45-14.66,54.69,0,29.15,11.35,56.54,31.95,77.15,20.59,20.58,47.96,31.93,77.07,31.95h5.08s616.25,0,616.25,0h5.08c29.11-.03,56.48-11.38,77.07-31.96,20.6-20.61,31.95-48,31.95-77.15,0-19.26-5.08-38.17-14.66-54.69l-1.36-2.26-254.69-423.85-48.42-80.57c-1.79-2.98-2.73-6.39-2.73-9.86V79.1c0-1.06.86-1.91,1.91-1.91h24.36c10.31,0,19.99-4.02,27.29-11.3,7.28-7.29,11.3-16.98,11.3-27.29s-4.01-20-11.3-27.29c-7.3-7.28-16.99-11.3-27.29-11.3h0Z"/>
      </g>
      <g>
        <g>
          <path d="m1484.15,398.38l-.54-4.42c-.63-5.14-4.99-9-10.17-9h-53.5c-5.66,0-10.25,4.59-10.25,10.25v255.63c0,5.66,4.59,10.25,10.25,10.25h58.14c5.66,0,10.25-4.59,10.25-10.25v-176.32c0-3.84,2.08-7.43,5.53-9.12,6.62-3.24,14.29-6.36,23.02-9.37,11.26-3.88,23.1-7.38,35.54-10.49,9.15-2.29,17.77-4.15,25.87-5.59,4.93-.88,8.5-5.06,8.5-10.06v-38.75c0-6.3-5.65-11.28-11.85-10.16-14.03,2.52-28.24,6.27-42.62,11.27-12.51,4.34-23.63,9-33.37,13.97-6.36,3.25-13.93-.75-14.8-7.83Z"/>
          <path d="m1840.48,404.47c-22.72-16.89-54.85-25.34-96.41-25.34-21.75,0-41.85,1.66-60.29,4.96-15.38,2.75-28.8,6.11-40.27,10.08-4.03,1.39-6.63,5.28-6.63,9.54v34.58c0,6.8,6.52,11.5,13.07,9.66,25.09-7.03,51.03-10.56,77.81-10.56,28.73,0,47.86,3.49,57.39,10.49,9.51,6.99,14.27,19.03,14.27,36.12v7.57h-81.56c-37.68,0-66.11,8.15-85.34,24.47-19.23,16.31-28.84,38.07-28.84,65.24,0,19.03,4.56,34.86,13.69,47.48,9.13,12.62,21.16,22.14,36.12,28.54,14.94,6.41,31.17,9.62,48.65,9.62,24.07,0,44.07-2.73,60-8.15,10.09-3.45,19.16-7.75,27.22-12.9,6.25-4,14.48-.6,15.67,6.72h0c.8,4.91,5.04,8.51,10.01,8.51h49.4c5.6,0,10.14-4.54,10.14-10.14v-165.21c0-37.28-11.36-64.37-34.08-81.26Zm-41.07,175.77c0,2.54-.86,5.05-2.59,6.91-7.1,7.63-16.32,14.02-27.7,19.18-12.81,5.83-27.97,8.74-45.44,8.74-33.41,0-50.1-12.23-50.1-36.69s15.35-37.87,46.03-37.87h69.67c5.6,0,10.14,4.54,10.14,10.14v29.6Z"/>
          <path d="m1935.96,443.21h26.61c3.83,0,6.94,3.11,6.94,6.94v204c0,3.83,3.11,6.94,6.94,6.94h64.77c3.83,0,6.94-3.11,6.94-6.94v-262.26c0-3.83-3.11-6.94-6.94-6.94h-99.92c-3.51,0-6.47,2.62-6.89,6.11l-5.33,44.38c-.5,4.13,2.73,7.76,6.89,7.76Z"/>
          <path d="m2293.99,379.12c-19.03,0-37.2,3.21-54.47,9.62-10.83,4.01-20.47,8.44-28.93,13.29-6.63,3.8-14.93-.19-15.77-7.78h0c-.59-5.3-5.07-9.3-10.4-9.3h-52.99c-5.78,0-10.46,4.68-10.46,10.46v255.2c0,5.78,4.68,10.46,10.46,10.46h57.71c5.78,0,10.46-4.68,10.46-10.46v-180.62c0-2.96,1.15-5.86,3.36-7.83,7.54-6.76,16.62-12.49,27.23-17.2,12.23-5.44,24.37-8.17,36.41-8.17,20.58,0,34.67,3.89,42.23,11.66,7.57,7.78,11.36,20.97,11.36,39.61v162.55c0,5.78,4.68,10.46,10.46,10.46h57.71c5.78,0,10.46-4.68,10.46-10.46v-166.63c0-35.73-8.35-62.14-25.05-79.22-16.7-17.09-43.31-25.64-79.81-25.64Z"/>
          <path d="m2553.22,602.54c-3.89-3.69-5.83-10.39-5.83-20.1v-301.83c0-6.72-5.45-12.17-12.17-12.17h-54.3c-6.72,0-12.17,5.45-12.17,12.17v308.23c0,27.19,6.12,47,18.35,59.42,12.23,12.44,31.76,18.64,58.55,18.64,16.25,0,30.8-1.97,43.65-5.89,4.97-1.52,8.19-6.34,8.19-11.54v-30.28c0-7.24-6.3-13.1-13.47-12.08-4.41.63-9.05.95-13.91.95-7.39,0-13.02-1.84-16.89-5.53Z"/>
          <path d="m2873.32,404.47c-22.72-16.89-54.87-25.34-96.41-25.34-21.76,0-41.86,1.66-60.29,4.96-15.38,2.75-28.8,6.11-40.27,10.07-4.03,1.39-6.63,5.28-6.63,9.54v34.57c0,6.81,6.52,11.5,13.07,9.66,25.09-7.03,51.03-10.56,77.81-10.56,28.73,0,47.86,3.49,57.37,10.49,9.52,6.99,14.27,19.03,14.27,36.12v7.57h-81.55c-37.68,0-66.12,8.15-85.35,24.47-19.22,16.31-28.84,38.07-28.84,65.24,0,19.03,4.57,34.86,13.7,47.48,9.12,12.62,21.16,22.14,36.12,28.54,14.94,6.41,31.16,9.62,48.64,9.62,24.08,0,44.08-2.73,60.01-8.15,10.08-3.45,19.16-7.75,27.22-12.91,6.25-4,14.48-.6,15.67,6.72h0c.8,4.91,5.04,8.51,10.01,8.51h49.4c5.6,0,10.14-4.54,10.14-10.14v-165.21c0-37.28-11.36-64.37-34.08-81.26Zm-41.08,175.77c0,2.54-.86,5.04-2.59,6.9-7.09,7.63-16.33,14.02-27.7,19.18-12.81,5.83-27.95,8.74-45.44,8.74-33.41,0-50.09-12.23-50.09-36.69s15.33-37.87,46.01-37.87h69.67c5.6,0,10.14,4.54,10.14,10.14v29.6Z"/>
          <path d="m3136.92,379.12c-15.15,0-29.71,1.75-43.69,5.25-8.25,2.06-16.03,4.73-23.33,8.01-6.85,3.08-14.54-1.75-14.54-9.26v-104.4c0-5.68-4.6-10.28-10.28-10.28h-58.08c-5.68,0-10.28,4.6-10.28,10.28v372.08c0,5.68,4.6,10.28,10.28,10.28h49.1c5.05,0,9.36-3.67,10.15-8.66h0c1.2-7.5,9.72-10.98,16.02-6.75,8.28,5.54,17.05,10,26.29,13.38,14.36,5.25,31.25,7.87,50.67,7.87,38.83,0,69.62-11.94,92.34-35.83,22.72-23.88,34.08-60.67,34.08-110.39s-11.57-85.73-34.67-108.07c-23.11-22.32-54.47-33.5-94.08-33.5Zm33.5,207.98c-10.3,14.76-28.07,22.14-53.31,22.14-12.04,0-23.4-2.13-34.08-6.41-9.27-3.71-17.44-8.88-24.51-15.51-2.06-1.94-3.16-4.74-3.16-7.57v-117.6c0-3.13,1.32-6.2,3.8-8.1,6.61-5.08,14.37-9.08,23.29-12,10.67-3.49,22.03-5.25,34.07-5.25,24.08,0,41.66,6.32,52.72,18.94,11.07,12.62,16.61,34.28,16.61,64.96s-5.15,51.65-15.44,66.41Z"/>
          <path d="m3535.38,543.12c-5.05-10.67-13.79-19.9-26.21-27.67-12.44-7.76-29.71-14.94-51.84-21.55-22.53-7-39.13-12.24-49.82-15.74-10.68-3.49-16.02-9.52-16.02-18.06,0-7.76,4.96-12.81,14.86-15.14,9.89-2.34,23.2-3.5,39.9-3.5,11.66,0,24.27,1.27,37.87,3.79,7.84,1.46,15.16,3.34,21.97,5.64,6.97,2.35,14.14-2.66,14.14-10.01v-41.03c0-4.69-3.01-8.93-7.52-10.21-8.92-2.53-19.23-4.76-30.93-6.72-15.14-2.52-31.26-3.79-48.35-3.79-42.73,0-73.69,7.09-92.92,21.27-19.22,14.18-28.84,34.47-28.84,60.88,0,23.69,6.79,41.56,20.4,53.6,13.59,12.04,33,22.33,58.26,30.87,24.07,7.78,42.23,13.79,54.47,18.06,12.23,4.27,18.35,11.06,18.35,20.38,0,8.15-3.99,13.4-11.93,15.74-7.97,2.32-21.66,3.49-41.08,3.49-14.37,0-30.1-1.45-47.18-4.37-11.59-1.97-22.37-4.52-32.35-7.66-6.82-2.14-13.67,3.01-13.67,10.16v42.6c0,4.76,3.15,8.85,7.7,10.26,10.1,3.14,22.49,5.84,37.16,8.13,18.64,2.92,38.25,4.37,58.84,4.37,81.56,0,122.33-27.97,122.33-83.89,0-15.93-2.52-29.23-7.57-39.91Z"/>
          <path d="m2002.24,252.35c-25.36,0-45.91,20.56-45.91,45.91s20.56,45.91,45.91,45.91,45.91-20.56,45.91-45.91-20.56-45.91-45.91-45.91Z"/>
        </g>
        <path d="m1215.42,379.12c-15.15,0-29.71,1.75-43.69,5.25-8.25,2.06-16.03,4.73-23.33,8.01-6.85,3.08-14.54-1.75-14.54-9.26v-104.4c0-5.68-4.6-10.28-10.28-10.28h-58.08c-5.68,0-10.28,4.6-10.28,10.28v372.08c0,5.68,4.6,10.28,10.28,10.28h49.1c5.05,0,9.36-3.67,10.15-8.66h0c1.2-7.5,9.72-10.98,16.02-6.75,8.28,5.54,17.05,10,26.29,13.38,14.36,5.25,31.25,7.87,50.67,7.87,38.83,0,69.62-11.94,92.34-35.83,22.72-23.88,34.08-60.67,34.08-110.39s-11.57-85.73-34.67-108.07c-23.11-22.32-54.47-33.5-94.08-33.5Zm33.5,207.98c-10.3,14.76-28.07,22.14-53.31,22.14-12.04,0-23.4-2.13-34.08-6.41-9.27-3.71-17.44-8.88-24.51-15.51-2.06-1.94-3.16-4.74-3.16-7.57v-117.6c0-3.13,1.32-6.2,3.8-8.1,6.61-5.08,14.37-9.08,23.29-12,10.67-3.49,22.03-5.25,34.07-5.25,24.08,0,41.66,6.32,52.72,18.94,11.07,12.62,16.61,34.28,16.61,64.96s-5.15,51.65-15.44,66.41Z"/>
      </g>
    </g>
  </g>
</svg>