<?xml version="1.0" encoding="UTF-8"?>
<svg id="Layer_2" data-name="Layer 2" xmlns="http://www.w3.org/2000/svg" viewBox="0 0 1326.73 1462.99">
  <defs>
    <style>
      .cls-1 {
        fill: #fff;
      }

      .cls-2 {
        fill: #ff5c8d;
      }

      .cls-3 {
        fill: #80dbff;
      }
    </style>
  </defs>
  <g id="Layer_1-2" data-name="Layer 1">
    <g>
      <path class="cls-3" d="m42.96,1212.78l-2.08,3.49c-13.11,22.6-20.11,48.71-20.11,75.29,0,40.24,15.67,78.07,44.11,106.53,28.43,28.41,66.23,44.08,106.42,44.11h7.99s968.18.01,968.18.01h7.94c40.21-.05,78-15.72,106.44-44.13,28.44-28.45,44.11-66.29,44.11-106.52,0-26.58-7-52.69-20.23-75.51l-1.97-3.28-400.16-665.93-6.43-10.7h-427.6l-6.43,10.7L42.96,1212.78Z"/>
      <path class="cls-2" d="m862.76,918.78c-4.09,12.18-15.59,20.96-29.15,20.96-16.98,0-30.75-13.77-30.75-30.75s13.77-30.75,30.75-30.75c13.56,0,25.06,8.78,29.15,20.96h92.4c.01-3.3-.4-6.66-1.26-9.94-2.66-10.06-10.02-18.24-19.46-22.61-3.63-1.68-7.52-2.73-11.51-3.09-4.43-.41-8.11-3.59-9.15-7.92h0c-1.07-4.47-2.62-8.81-4.61-12.93-10.65-22.01-33.32-36.24-57.76-36.24-5.18.31-9.85-3.09-11.15-8.11l-.02-.09c-3.47-16.33-18.15-28.17-34.87-28.17-6.51,0-12.89,1.77-18.43,5.12h0c-3.85,2.33-8.76,1.92-12.17-1.03h0c-13.59-11.75-28.72-21.36-44.86-28.63v202.3c11.78,4.31,20.19,15.62,20.19,28.89,0,16.98-13.77,30.75-30.75,30.75s-30.75-13.77-30.75-30.75c0-13.85,9.15-25.55,21.73-29.4v-209.29c-18.05-5.77-37.01-8.78-56.26-8.78-50.27,0-98.72,20.76-133.44,57.03v139.15c0,5.93-2.15,11.35-5.7,15.54-.37.52-.78,1.01-1.22,1.47v.13h-.13c-.45.45-.95.85-1.47,1.22-4.19,3.55-9.62,5.7-15.54,5.7h-34.87c-4.09,12.18-15.59,20.96-29.15,20.96-16.98,0-30.75-13.77-30.75-30.75s13.77-30.75,30.75-30.75c13.56,0,25.06,8.78,29.15,20.96h30.32c4.98,0,9.02-4.04,9.02-9.02v-131.04c-3.73-.67-7.53-1.01-11.36-1.01-35.36,0-64.13,28.77-64.13,64.13,0,1.21.03,2.42.12,3.62h0c.32,4.78-2.68,9.16-7.25,10.6-46.16,14.47-77.17,56.73-77.17,105.14,0,17.5,4.17,34.74,12.09,50.19h106.07c5.92,0,11.34,2.14,15.53,5.69.52.37,1.02.78,1.48,1.23h.13v.13c.45.46.86.96,1.24,1.48,3.55,4.19,5.69,9.61,5.69,15.53v25.02c12.18,4.09,20.96,15.59,20.96,29.15,0,16.98-13.77,30.75-30.75,30.75s-30.75-13.77-30.75-30.75c0-13.56,8.78-25.06,20.96-29.15v-20.48c0-4.98-4.04-9.02-9.02-9.02h-101.16c-5.91,13.54-8.97,27.95-9.1,42.93-.5,58.94,46.5,108.6,105.39,111.04,16.77.7,33.01-2.27,48.18-8.78l10.18-4.37c5.02-2.16,10.08,2.95,7.88,7.95l-39.66,90.28c-1.54,5.1-1.91,10.57-1.06,16.07,1.79,11.49,9.38,21.52,19.92,26.44,17.6,8.22,37.2,1.03,46.13-14.29l4.75-8.16.41.19,92.07-145.21c.83-1.32,1.94-2.39,3.21-3.19.57-.42,1.2-.74,1.88-.94,1.4-.53,2.91-.78,4.46-.66,2.79.21,5.62.32,8.47.32,47.87,0,90.36-31.53,104.85-76.33h-139.58c-5.94,0-11.37-2.16-15.57-5.72-.51-.37-.99-.76-1.44-1.2h-.13v-.13c-.44-.44-.83-.93-1.2-1.43-3.57-4.2-5.72-9.63-5.72-15.57v-183.81c-12.18-4.09-20.96-15.59-20.96-29.15,0-16.98,13.77-30.75,30.75-30.75s30.75,13.77,30.75,30.75c0,13.56-8.78,25.06-20.96,29.15v179.27c0,4.98,4.04,9.02,9.02,9.02l150.05.03c.58,0,1.15-.02,1.72-.04.3,0,.6-.01.9-.02,12.36-.55,24.02-4.96,34.04-11.89h0c2.41-1.67,5.41-2.24,8.27-1.58,8.19,1.91,16.65,2.88,25.15,2.88,60.75,0,110.17-49.42,110.17-110.17,0-5.47-.41-10.92-1.2-16.28h-92.97Z"/>
      <path d="m975.09,908.92c.57-3.22.86-6.54.86-9.87,0-20.64-11.41-39.68-29.35-49.52l-3.41-1.72c-3.59-1.66-7.31-2.93-11.13-3.79-1.17-3.54-2.57-7-4.19-10.36-13.1-27.08-39.96-45.25-69.65-47.68-8.13-21.65-29.19-36.65-52.86-36.65-7.75,0-15.37,1.59-22.42,4.64-36.42-29.36-81.91-45.45-128.89-45.45-55.02,0-108.08,22.33-146.56,61.48-5.83-1.25-11.8-1.88-17.82-1.88-45.79,0-83.22,36.43-84.84,81.84-50.77,19.24-84.36,67.49-84.36,122.41,0,21.04,5.06,41.77,14.69,60.31-7.52,16.79-11.34,34.72-11.34,53.36,0,72.2,58.74,130.94,130.94,130.94,9.76,0,19.35-1.05,28.7-3.15l-26.15,59.54-.39,1.03c-1.75,5.5-2.64,11.25-2.64,17.08,0,31.12,25.31,56.43,56.43,56.43,16.79,0,32.66-7.57,43.28-20.23l.51.24,98.56-155.44c1.24.03,2.48.05,3.73.05,58.99,0,111.14-40.29,126.41-96.71,13.54-.99,26.53-5.19,38.08-12.29,8.35,1.64,16.9,2.47,25.46,2.47,72.2,0,130.94-58.74,130.94-130.94,0-8.8-.88-17.58-2.61-26.14Zm-128.33,136.3c-8.5,0-16.96-.97-25.15-2.88-2.85-.67-5.86-.1-8.27,1.57h0c-10.02,6.94-21.68,11.34-34.04,11.89-.3.01-.6.02-.9.02-.57.02-1.14.04-1.72.04l-150.05-.03c-4.98,0-9.02-4.04-9.02-9.02v-179.27c12.18-4.09,20.96-15.59,20.96-29.15,0-16.98-13.77-30.75-30.75-30.75s-30.75,13.77-30.75,30.75c0,13.56,8.78,25.06,20.96,29.15v183.81c0,5.94,2.16,11.37,5.73,15.57.36.51.76.99,1.2,1.43v.13h.13c.45.44.93.84,1.44,1.2,4.2,3.57,9.63,5.72,15.57,5.72h139.58c-14.49,44.8-56.98,76.33-104.85,76.33-2.85,0-5.68-.11-8.47-.32-1.55-.12-3.06.13-4.46.66-.68.2-1.31.52-1.88.94-1.27.81-2.38,1.88-3.21,3.19l-92.07,145.21-.41-.19-4.75,8.16c-8.93,15.32-28.54,22.51-46.13,14.29-10.53-4.92-18.13-14.96-19.92-26.44-.86-5.49-.49-10.97,1.06-16.07l39.66-90.28c2.2-5-2.87-10.1-7.88-7.95l-10.18,4.37c-15.16,6.51-31.41,9.47-48.18,8.78-58.89-2.45-105.89-52.1-105.39-111.04.13-14.98,3.19-29.39,9.1-42.93h101.16c4.98,0,9.02,4.04,9.02,9.02v20.48c-12.18,4.09-20.96,15.59-20.96,29.15,0,16.98,13.77,30.75,30.75,30.75s30.75-13.77,30.75-30.75c0-13.56-8.78-25.06-20.96-29.15v-25.02c0-5.92-2.14-11.34-5.69-15.53-.37-.53-.78-1.02-1.24-1.48v-.13h-.13c-.46-.45-.95-.86-1.48-1.23-4.19-3.55-9.61-5.69-15.53-5.69h-106.06c-7.92-15.45-12.09-32.69-12.09-50.19,0-48.41,31.01-90.66,77.17-105.14,4.57-1.44,7.57-5.82,7.25-10.6h0c-.08-1.2-.11-2.41-.11-3.62,0-35.36,28.77-64.13,64.13-64.13,3.83,0,7.63.34,11.36,1.01v131.04c0,4.98-4.04,9.02-9.02,9.02h-30.32c-4.09-12.18-15.59-20.96-29.15-20.96-16.98,0-30.75,13.77-30.75,30.75s13.77,30.75,30.75,30.75c13.56,0,25.06-8.78,29.15-20.96h34.87c5.93,0,11.35-2.15,15.54-5.7.52-.37,1.01-.78,1.47-1.22h.13v-.13c.45-.45.85-.95,1.22-1.47,3.55-4.19,5.7-9.61,5.7-15.54v-139.15c34.72-36.28,83.16-57.03,133.44-57.03,19.25,0,38.22,3.01,56.26,8.78v209.29c-12.58,3.85-21.73,15.56-21.73,29.4,0,16.98,13.77,30.75,30.75,30.75s30.75-13.77,30.75-30.75c0-13.27-8.41-24.58-20.19-28.89v-202.3c16.14,7.27,31.27,16.88,44.86,28.63h0c3.41,2.94,8.32,3.36,12.17,1.03h0c5.54-3.35,11.92-5.12,18.43-5.12,16.73,0,31.4,11.84,34.87,28.17l.02.09c1.3,5.02,5.97,8.42,11.15,8.11,24.43,0,47.11,14.22,57.76,36.24,1.99,4.12,3.54,8.46,4.61,12.93h0c1.04,4.33,4.72,7.52,9.15,7.92,3.98.37,7.88,1.41,11.51,3.09,9.45,4.37,16.8,12.55,19.46,22.61.87,3.28,1.28,6.63,1.26,9.94h-92.4c-4.09-12.18-15.59-20.96-29.15-20.96-16.98,0-30.75,13.77-30.75,30.75s13.77,30.75,30.75,30.75c13.56,0,25.06-8.78,29.15-20.96h92.97c.79,5.36,1.2,10.81,1.2,16.28,0,60.75-49.42,110.17-110.17,110.17Z"/>
      <g>
        <path d="m410.01,33.83c-.15.3-.3.58-.44.88.14-.3.3-.59.44-.88Z"/>
        <path class="cls-1" d="m807.99,421.04c-5.06-8.42-7.73-18.06-7.73-27.88V112.53c0-6.64,5.39-12.03,12.03-12.03h50.02c10.64,0,20.66-4.15,28.22-11.69,7.5-7.51,11.65-17.53,11.65-28.18s-4.15-20.67-11.68-28.21c-7.53-7.51-17.55-11.66-28.19-11.66h-397.89c-10.64,0-20.66,4.15-28.22,11.69-7.5,7.51-11.65,17.53-11.65,28.18s4.15,20.67,11.68,28.21c7.53,7.51,17.55,11.66,28.19,11.66h50.02c6.64,0,12.03,5.39,12.03,12.03v280.64c0,9.83-2.67,19.47-7.74,27.89l-69.18,115.09h427.61l-69.18-115.11Z"/>
        <path d="m410.89,32.08c-.31.58-.59,1.17-.88,1.75.29-.59.57-1.17.88-1.75Z"/>
      </g>
      <path d="m862.31,20.77c10.64,0,20.66,4.15,28.19,11.66,7.53,7.54,11.68,17.56,11.68,28.21s-4.15,20.67-11.65,28.18c-7.56,7.54-17.57,11.69-28.22,11.69h-50.02c-6.64,0-12.03,5.39-12.03,12.03v8.74s0,271.88,0,271.88c0,9.82,2.67,19.46,7.73,27.88l75.61,125.81,400.16,665.93,1.97,3.28c13.24,22.82,20.23,48.93,20.23,75.51,0,40.24-15.67,78.07-44.11,106.52-28.44,28.42-66.24,44.09-106.44,44.12h-7.94s-968.18.01-968.18.01h-7.99c-40.19-.05-77.99-15.72-106.42-44.12-28.45-28.46-44.11-66.3-44.11-106.53,0-26.59,7-52.7,20.11-75.29l2.08-3.49,400.17-665.93,75.61-125.8c5.06-8.42,7.74-18.06,7.74-27.89V121.27s0-8.74,0-8.74c0-6.64-5.39-12.03-12.03-12.03h-8.74s-41.28,0-41.28,0c-10.64,0-20.66-4.15-28.19-11.66-7.53-7.54-11.68-17.56-11.68-28.21s4.15-20.67,11.65-28.18c7.56-7.54,17.57-11.69,28.22-11.69h397.89m0-20.77h-397.89c-16.19,0-31.41,6.31-42.88,17.75-11.44,11.46-17.75,26.68-17.75,42.88s6.31,31.43,17.75,42.88c11.47,11.44,26.69,17.75,42.88,17.75h38.28c1.66,0,3.01,1.35,3.01,3.01v269.79c0,5.46-1.49,10.81-4.3,15.49l-76.08,126.59L25.16,1202.08l-2.12,3.55c-15.07,25.97-23.04,55.69-23.04,85.93,0,45.8,17.83,88.84,50.2,121.22,32.36,32.33,75.36,50.16,121.09,50.2h7.97s968.21.01,968.21.01h7.97c45.73-.05,88.73-17.88,121.09-50.21,32.37-32.38,50.2-75.42,50.2-121.22,0-30.25-7.97-59.96-23.04-85.93l-2.13-3.55-400.16-665.93-76.08-126.59c-2.81-4.68-4.3-10.03-4.3-15.49V124.28c0-1.66,1.35-3.01,3.01-3.01h38.27c16.19,0,31.41-6.31,42.88-17.75,11.44-11.46,17.75-26.68,17.75-42.88s-6.31-31.43-17.75-42.88c-11.47-11.44-26.69-17.75-42.88-17.75h0Z"/>
    </g>
  </g>
</svg>